<svg width="128" height="37" viewBox="0 0 128 37" fill="none" xmlns="http://www.w3.org/2000/svg">
<path d="M62.0914 0.882812C62.0861 1.0043 62.0776 1.12685 62.0776 1.24833C62.0776 12.814 62.0776 24.3808 62.0776 35.9465V36.3025C61.9591 36.3078 61.8638 36.3163 61.7696 36.3163C60.1292 36.3163 58.4899 36.312 56.8494 36.3215C56.5859 36.3226 56.5118 36.2254 56.4811 35.9761C56.4399 35.6412 56.3372 35.3137 56.2546 34.9841C56.1636 34.6186 56.0589 34.2562 55.971 33.8897C55.8578 33.4185 55.7562 32.9442 55.6482 32.4719C55.5392 31.9923 55.4344 31.5106 55.317 31.0331C55.1942 30.5345 55.0534 30.0411 54.9286 29.5435C54.8428 29.2034 54.7709 28.859 54.6894 28.5178C54.6089 28.1839 54.5253 27.8512 54.4417 27.5184C54.3518 27.1613 54.2555 26.8064 54.1708 26.4482C54.0332 25.8651 53.903 25.2809 53.7697 24.6967C53.685 24.3269 53.6078 23.9551 53.5167 23.5874C53.4268 23.2219 53.3167 22.8617 53.2268 22.4972C53.1421 22.1539 53.0796 21.8053 52.9939 21.463C52.9093 21.1249 52.8045 20.7921 52.7145 20.4551C52.6299 20.1403 52.5484 19.8245 52.4753 19.5065C52.3526 18.974 52.2383 18.4405 52.1197 17.9071C51.9853 17.2964 51.8604 16.6837 51.7133 16.0763C51.5969 15.5967 51.4519 15.1234 51.3239 14.6469C51.3038 14.5719 51.326 14.48 51.2932 14.4145C51.254 14.3374 51.1736 14.2814 51.1111 14.2159C51.0646 14.2867 51.0032 14.3533 50.9746 14.4304C50.9524 14.4927 50.9704 14.5698 50.9704 14.6395C50.9704 21.7408 50.9704 28.8421 50.9704 35.9444C50.9704 36.0574 50.9704 36.1705 50.9704 36.3004C50.8773 36.3068 50.8011 36.3163 50.7249 36.3163C49.4379 36.3163 48.1499 36.311 46.863 36.3226C46.6175 36.3247 46.5508 36.2529 46.5508 36.0099C46.5561 24.4262 46.555 12.8426 46.5592 1.2589C46.5592 1.13318 46.6122 1.00853 46.6397 0.882813C48.5098 0.882813 50.3788 0.882813 52.2489 0.882813C52.2552 0.969439 52.2489 1.05818 52.269 1.14164C52.3261 1.40046 52.3949 1.65717 52.4563 1.91599C52.5367 2.25827 52.6108 2.60372 52.6955 2.94495C52.7854 3.30941 52.8944 3.66965 52.977 4.03518C53.0627 4.41232 53.1209 4.79474 53.2014 5.17294C53.3072 5.67263 53.4225 6.17126 53.5326 6.66989C53.6109 7.02591 53.684 7.38298 53.7644 7.73794C53.8554 8.13938 53.9528 8.5387 54.0459 8.94014C54.1306 9.30884 54.2121 9.67858 54.2967 10.0473C54.3867 10.4392 54.4809 10.8301 54.5698 11.2231C54.6492 11.5738 54.7211 11.9266 54.8037 12.2763C54.8947 12.6587 55.0016 13.0369 55.0905 13.4204C55.19 13.8504 55.2746 14.2846 55.3667 14.7167C55.4567 15.1403 55.5498 15.5629 55.6376 15.9875C55.7149 16.3594 55.7773 16.7344 55.862 17.1042C55.952 17.4961 56.0652 17.8817 56.1573 18.2736C56.242 18.6339 56.3044 18.9983 56.3901 19.3586C56.479 19.7326 56.5944 20.1002 56.6812 20.4742C56.769 20.8513 56.8346 21.2327 56.9151 21.6119C57.0219 22.1201 57.132 22.6271 57.2421 23.1353C57.2738 23.279 57.3045 23.4247 57.3521 23.5631C57.368 23.6086 57.44 23.6646 57.4844 23.6624C57.5268 23.6603 57.5913 23.5959 57.6019 23.5483C57.6252 23.4385 57.6294 23.3233 57.6294 23.2103C57.6305 15.9263 57.6294 8.64223 57.6315 1.3582C57.6315 1.2008 57.6421 1.04233 57.6485 0.884925C59.1301 0.884925 60.6118 0.884925 62.0935 0.884925L62.0914 0.882812Z" fill="white"/>
<path d="M80.0866 0.882812C80.1458 0.912392 80.2019 0.958875 80.2633 0.967326C80.4019 0.986342 80.5448 0.996906 80.6845 0.994793C81.3873 0.98106 82.0752 1.08248 82.7684 1.18812C83.379 1.28108 83.9452 1.46807 84.4765 1.75119C85.0755 2.07023 85.5084 2.56675 85.7963 3.18476C86.0852 3.80382 86.2302 4.45352 86.3381 5.13069C86.6281 6.96252 86.5509 8.80387 86.5138 10.6389C86.4895 11.8643 86.1244 13.0179 85.2163 13.9296C84.8184 14.329 84.3241 14.5381 83.7971 14.6913C83.7293 14.7103 83.6553 14.7156 83.596 14.7484C83.541 14.7779 83.4658 14.8381 83.4658 14.8825C83.4658 14.9301 83.5388 14.9934 83.5939 15.0209C83.9315 15.1836 84.2786 15.3283 84.612 15.4984C85.2131 15.8058 85.6079 16.3076 85.9032 16.8992C86.1265 17.3472 86.2598 17.8141 86.336 18.3138C86.4884 19.3195 86.536 20.3273 86.535 21.3425C86.5308 26.2116 86.5329 31.0806 86.5329 35.9497V36.3025H81.3587V35.9634C81.3587 30.488 81.365 25.0126 81.3481 19.5371C81.346 18.9941 81.2952 18.4247 80.9787 17.944C80.7755 17.6345 80.4612 17.5003 80.0929 17.4264C79.0441 17.2151 77.9911 17.4116 76.9084 17.3155V36.3057H71.8294C71.8231 36.2117 71.8125 36.1198 71.8125 36.0268C71.8125 24.4347 71.8125 12.8415 71.8125 1.24939C71.8125 1.1279 71.8231 1.00536 71.8294 0.883869C74.5811 0.883869 77.3328 0.883869 80.0844 0.883869L80.0866 0.882812ZM76.9179 12.6059C77.0407 12.6059 77.1433 12.6059 77.247 12.6059C78.1022 12.6028 78.9573 12.6102 79.8114 12.589C80.0379 12.5837 80.2728 12.5151 80.4866 12.4327C81.1703 12.1665 81.3206 11.5421 81.346 10.9315C81.3947 9.72084 81.3671 8.50807 81.3555 7.29529C81.3523 6.99316 81.3312 6.67623 81.2338 6.39522C81.147 6.14485 80.9756 5.90187 80.784 5.71383C80.439 5.37472 79.9511 5.37261 79.5119 5.3462C78.7478 5.30077 77.9794 5.34091 77.2121 5.32929C76.9655 5.32507 76.8978 5.41064 76.8989 5.6515C76.9073 7.86471 76.9031 10.079 76.9041 12.2922C76.9041 12.3862 76.9126 12.4802 76.9179 12.6059Z" fill="white"/>
<path d="M127.499 16.9182C125.232 16.9182 122.966 16.9214 120.699 16.9161C120.443 16.9161 120.31 16.9668 120.276 17.2658C120.239 17.5891 120.098 17.8997 120.01 18.2187C119.923 18.5314 119.848 18.8483 119.766 19.1631C119.673 19.5192 119.575 19.8731 119.485 20.2291C119.4 20.5629 119.324 20.8988 119.244 21.2337C119.115 21.763 118.985 22.2923 118.857 22.8215C118.733 23.3339 118.618 23.8494 118.488 24.3607C118.403 24.6925 118.296 25.0189 118.204 25.3485C118.121 25.6517 118.045 25.957 117.965 26.2612C117.868 26.631 117.764 26.9986 117.67 27.3694C117.589 27.6853 117.518 28.0043 117.442 28.3213C117.328 28.7977 117.213 29.2742 117.096 29.7506C116.999 30.1478 116.901 30.545 116.801 30.9412C116.74 31.1831 116.672 31.424 116.612 31.667C116.595 31.7398 116.598 31.817 116.588 31.9216H116.927C119.043 31.9216 121.16 31.9247 123.277 31.9173C123.504 31.9173 123.582 31.9723 123.58 32.21C123.569 33.502 123.574 34.794 123.574 36.086C123.574 36.1546 123.568 36.2233 123.564 36.3046H111.223C111.219 36.2127 111.211 36.1208 111.211 36.0279C111.211 34.7179 111.195 33.4079 111.22 32.099C111.227 31.7525 111.35 31.406 111.436 31.0637C111.562 30.563 111.703 30.0665 111.835 29.5668C111.971 29.0576 112.106 28.5484 112.241 28.0392C112.356 27.6018 112.464 27.1624 112.586 26.7271C112.709 26.2845 112.852 25.8461 112.976 25.4034C113.096 24.9756 113.204 24.5435 113.316 24.1125C113.437 23.6455 113.558 23.1786 113.677 22.7117C113.775 22.3261 113.864 21.9373 113.968 21.5528C114.053 21.2316 114.157 20.9147 114.247 20.5946C114.332 20.2903 114.407 19.9819 114.488 19.6766C114.603 19.2466 114.717 18.8177 114.836 18.3888C114.954 17.962 115.083 17.5384 115.188 17.1084C115.199 17.063 115.091 16.9647 115.019 16.9299C114.954 16.8982 114.863 16.9182 114.784 16.9182C113.284 16.9182 111.785 16.913 110.286 16.9225C110.038 16.9246 109.947 16.8623 109.95 16.6003C109.963 15.4044 109.963 14.2096 109.95 13.0137C109.947 12.7485 110.042 12.6936 110.287 12.6947C112.21 12.7031 114.132 12.6989 116.055 12.6989C116.158 12.6989 116.262 12.6989 116.374 12.6989C117.036 10.1952 117.691 7.71681 118.359 5.18879C118.186 5.18879 118.084 5.18879 117.981 5.18879C116.076 5.18879 114.171 5.18456 112.266 5.19407C112.008 5.19513 111.935 5.11484 111.937 4.86341C111.947 3.53654 111.941 2.20968 111.941 0.882812C115.786 0.884925 119.632 0.884925 123.477 0.884925C123.482 1.7533 123.453 2.6238 123.504 3.48901C123.554 4.32569 123.333 5.10639 123.141 5.8987C122.97 6.60756 122.782 7.3122 122.609 8.02C122.494 8.49011 122.403 8.9655 122.282 9.43455C122.162 9.89621 122.017 10.3515 121.888 10.8111C121.782 11.1893 121.677 11.5675 121.585 11.9488C121.527 12.1844 121.494 12.4263 121.443 12.6999H127.5V16.9193L127.499 16.9182Z" fill="white"/>
<path d="M17.01 0.885982C17.0375 1.0286 17.0883 1.17227 17.0894 1.31489C17.0957 2.48435 17.0936 3.65275 17.0926 4.82221C17.0926 5.14336 17.0471 5.18668 16.7243 5.18668C15.2426 5.18668 13.7609 5.18668 12.2793 5.18668C12.1734 5.18668 12.0687 5.18668 11.9417 5.18668V12.6947H18.3647V16.9066H11.9332V36.3004H6.82778C6.82778 36.1663 6.82778 36.0374 6.82778 35.9085C6.82778 29.7823 6.82778 23.6561 6.82778 17.5289C6.82778 17.4412 6.83413 17.3524 6.82567 17.2658C6.8045 17.0429 6.73042 16.9108 6.45207 16.9119C4.4677 16.9235 2.48332 16.9172 0.5 16.9172V12.6978C2.45686 12.6978 4.41372 12.6968 6.37058 12.7021C6.71877 12.7031 6.8299 12.7338 6.8299 12.2394C6.82778 8.68132 6.82884 5.12329 6.8299 1.56526C6.8299 1.33813 6.84366 1.10994 6.85001 0.882812C10.2367 0.882812 13.6233 0.882812 17.01 0.882812V0.885982Z" fill="white"/>
<path d="M36.5874 0.885982C36.5948 1.94029 36.6011 2.9946 36.6075 4.04891C36.6085 4.29506 36.6075 4.5412 36.6075 4.78735C36.6075 5.05357 36.4777 5.18668 36.218 5.18668C34.8337 5.18668 33.4484 5.18668 32.0641 5.18668C31.7755 5.18668 31.6312 5.33 31.6312 5.61664C31.6312 7.7971 31.6323 9.97649 31.6301 12.1569C31.6301 12.5964 31.7159 12.6038 32.0789 12.6017C33.4283 12.5933 34.7776 12.5985 36.127 12.5985C36.2307 12.5985 36.3344 12.5985 36.4583 12.5985V16.9045C36.345 16.9108 36.2424 16.9204 36.1397 16.9204C34.7639 16.9204 33.388 16.9204 32.0122 16.9204C31.682 16.9204 31.6312 16.969 31.6312 17.3028C31.6312 22.0493 31.6312 26.7958 31.6312 31.5423C31.6312 31.892 31.6608 31.9205 32.0069 31.9205C33.4357 31.9205 34.8644 31.9205 36.2932 31.9205C36.6339 31.9205 36.6689 31.9564 36.6689 32.3019C36.6689 33.5506 36.6668 34.7982 36.671 36.0469C36.671 36.2233 36.6414 36.3226 36.4276 36.3226C33.1647 36.3173 29.9019 36.3173 26.638 36.3163C26.621 36.3163 26.6031 36.311 26.5417 36.3015V36.0331C26.5417 24.4125 26.5417 12.7919 26.5417 1.17122C26.5417 1.07508 26.5364 0.978947 26.5332 0.882812C29.8849 0.885982 33.2356 0.885982 36.5874 0.885982Z" fill="white"/>
<path d="M101.462 0.882812C101.49 1.01698 101.543 1.15114 101.543 1.28425C101.548 12.8489 101.547 24.4136 101.552 35.9793C101.552 36.2381 101.497 36.3268 101.219 36.3247C99.7124 36.311 98.2043 36.3184 96.6962 36.3184H96.4041C96.3988 36.2085 96.3903 36.1156 96.3903 36.0236C96.3903 24.4146 96.3903 12.8056 96.3903 1.19763C96.3903 1.09304 96.385 0.988455 96.3818 0.883869C98.0752 0.883869 99.7685 0.883869 101.462 0.883869V0.882812Z" fill="white"/>
</svg>
